<svg id="Layer_1" enable-background="new 0 0 512 512" height="512" viewBox="0 0 512 512" width="512" xmlns="http://www.w3.org/2000/svg"><g><g><path d="m504.5 62.791v335.53c0 10.9-8.84 19.73-19.73 19.73h-457.54c-10.89 0-19.73-8.83-19.73-19.73v-335.53c0-10.9 8.84-19.74 19.73-19.74h457.54c10.89 0 19.73 8.84 19.73 19.74z" fill="#57f3ff"/><path d="m504.5 62.791v335.53c0 10.9-8.84 19.73-19.73 19.73h-457.54c-10.89 0-19.73-8.83-19.73-19.73v-9.66h438.26c14.7 0 26.62-11.91 26.62-26.61v-319h12.39c10.89 0 19.73 8.84 19.73 19.74z" fill="#55d7ff"/><path d="m504.5 62.791v50h-497v-50c0-10.9 8.84-19.74 19.73-19.74h457.54c10.89 0 19.73 8.84 19.73 19.74z" fill="#466175"/><path d="m504.5 62.791v50h-32.12v-69.74h12.39c10.89 0 19.73 8.84 19.73 19.74z" fill="#2d4859"/></g><path d="m69.67 180.468h372.66v288.48h-372.66z" fill="#d9f9f8"/><path d="m442.33 180.468v288.48h-372.66v-26h327.84c11.06 0 20.03-8.97 20.03-20.03v-242.45z" fill="#c1eaf4"/></g><g><path d="m442.329 172.965h-230.722c-4.143 0-7.5 3.358-7.5 7.5s3.357 7.5 7.5 7.5h223.222v273.481h-114.774c-4.143 0-7.5 3.358-7.5 7.5s3.357 7.5 7.5 7.5h122.274c4.143 0 7.5-3.358 7.5-7.5v-288.481c0-4.142-3.357-7.5-7.5-7.5z"/><path d="m285.25 461.446h-208.08v-273.481h99.643c4.143 0 7.5-3.358 7.5-7.5s-3.357-7.5-7.5-7.5h-107.143c-4.143 0-7.5 3.358-7.5 7.5v288.481c0 4.142 3.357 7.5 7.5 7.5h215.58c4.143 0 7.5-3.358 7.5-7.5s-3.357-7.5-7.5-7.5z"/><path d="m153.041 217.445c-25.655 0-46.527 20.872-46.527 46.527 0 23.103 16.925 42.326 39.027 45.923v22.022c0 4.142 3.357 7.5 7.5 7.5s7.5-3.358 7.5-7.5v-22.022c22.102-3.597 39.027-22.82 39.027-45.923 0-25.655-20.872-46.527-46.527-46.527zm0 78.055c-17.384 0-31.527-14.143-31.527-31.527s14.144-31.527 31.527-31.527 31.527 14.143 31.527 31.527-14.143 31.527-31.527 31.527z"/><path d="m237.75 243.466h159.422c4.143 0 7.5-3.358 7.5-7.5s-3.357-7.5-7.5-7.5h-159.422c-4.143 0-7.5 3.358-7.5 7.5s3.357 7.5 7.5 7.5z"/><path d="m237.75 287.699h159.422c4.143 0 7.5-3.358 7.5-7.5s-3.357-7.5-7.5-7.5h-159.422c-4.143 0-7.5 3.358-7.5 7.5s3.357 7.5 7.5 7.5z"/><path d="m397.172 317.815h-35.447c-4.143 0-7.5 3.358-7.5 7.5s3.357 7.5 7.5 7.5h35.447c4.143 0 7.5-3.358 7.5-7.5s-3.358-7.5-7.5-7.5z"/><path d="m237.75 332.815h88.677c4.143 0 7.5-3.358 7.5-7.5s-3.357-7.5-7.5-7.5h-88.677c-4.143 0-7.5 3.358-7.5 7.5s3.357 7.5 7.5 7.5z"/><path d="m106.514 369.549c0 4.142 3.357 7.5 7.5 7.5h283.158c4.143 0 7.5-3.358 7.5-7.5s-3.357-7.5-7.5-7.5h-283.158c-4.143 0-7.5 3.358-7.5 7.5z"/><path d="m397.172 407.165h-35.447c-4.143 0-7.5 3.358-7.5 7.5s3.357 7.5 7.5 7.5h35.447c4.143 0 7.5-3.358 7.5-7.5s-3.358-7.5-7.5-7.5z"/><path d="m114.014 407.165c-4.143 0-7.5 3.358-7.5 7.5s3.357 7.5 7.5 7.5h212.413c4.143 0 7.5-3.358 7.5-7.5s-3.357-7.5-7.5-7.5z"/><path d="m484.767 35.554h-457.534c-15.016 0-27.233 12.217-27.233 27.233v335.533c0 15.017 12.217 27.234 27.233 27.234h12.437c4.143 0 7.5-3.358 7.5-7.5s-3.357-7.5-7.5-7.5h-12.437c-6.745 0-12.233-5.488-12.233-12.234v-278.033h392c4.143 0 7.5-3.358 7.5-7.5s-3.357-7.5-7.5-7.5h-392v-42.5c0-6.746 5.488-12.233 12.233-12.233h457.533c6.745 0 12.233 5.488 12.233 12.233v42.5h-54.671c-4.143 0-7.5 3.358-7.5 7.5s3.357 7.5 7.5 7.5h54.672v278.033c0 6.746-5.488 12.234-12.233 12.234h-12.797c-4.143 0-7.5 3.358-7.5 7.5s3.357 7.5 7.5 7.5h12.797c15.017 0 27.233-12.217 27.233-27.234v-335.533c0-15.016-12.217-27.233-27.233-27.233z"/><path d="m41.877 70.431c-4.143 0-7.5 3.358-7.5 7.5s3.357 7.5 7.5 7.5h30.794c4.143 0 7.5-3.358 7.5-7.5s-3.357-7.5-7.5-7.5z"/><path d="m107.671 70.431c-4.143 0-7.5 3.358-7.5 7.5s3.357 7.5 7.5 7.5h30.793c4.143 0 7.5-3.358 7.5-7.5s-3.357-7.5-7.5-7.5z"/><path d="m173.671 70.431c-4.143 0-7.5 3.358-7.5 7.5s3.357 7.5 7.5 7.5h30.793c4.143 0 7.5-3.358 7.5-7.5s-3.357-7.5-7.5-7.5z"/></g></svg>